<svg xmlns="http://www.w3.org/2000/svg" viewBox="0 0 200 60" fill="#fff">
  <path fill="#3ddc84" d="M38.8,15.1c3.8,0,7.2,1.5,9.7,4l-3.3,3.3c-1.8-1.7-4.1-2.7-6.5-2.7c-5.2,0-9.4,4.2-9.4,9.4s4.2,9.4,9.4,9.4 c4.5,0,7.5-2.7,8.4-5.8h-8.4v-4.5h13.2c0.2,1,0.2,1.8,0.2,2.8c0,3-0.8,5.7-2.9,7.8c-2.1,2.1-5.1,3.3-8.8,3.3 C31.6,42.1,25,35.5,25,29.1S31.6,15.1,38.8,15.1z M61.1,30.6c0,4.8-3.7,8.3-8.2,8.3c-4.5,0-8.2-3.5-8.2-8.3c0-4.8,3.7-8.3,8.2-8.3 C57.5,22.3,61.1,25.8,61.1,30.6z M57.7,30.6c0-2.8-2-5-4.7-5c-2.8,0-4.7,2.2-4.7,5c0,2.8,2,5,4.7,5C55.7,35.6,57.7,33.3,57.7,30.6z"/>
  <path fill="#3ddc84" d="M12,42h-4V18h4V42z M80,30.6c0,4.8-3.7,8.3-8.2,8.3c-4.5,0-8.2-3.5-8.2-8.3c0-4.8,3.7-8.3,8.2-8.3C76.4,22.3,80,25.8,80,30.6z M76.6,30.6c0-2.8-2-5-4.7-5c-2.8,0-4.7,2.2-4.7,5c0,2.8,2,5,4.7,5C74.6,35.6,76.6,33.3,76.6,30.6z"/>
</svg>
