<svg xmlns="http://www.w3.org/2000/svg" viewBox="0 0 200 80" fill="#fff">
  <path d="M128.9 31.8c0-5.7-8.2-7.8-13.8-7.8-3.4 0-6.7.7-9.8 1.9l1.5 6c2.5-.9 5.3-1.4 8-1.4 3.1 0 5.4.9 5.4 3 0 1.2-1.3 1.9-4.2 2.6-6.4 1.5-13.3 3.3-13.3 10.9 0 5.4 3.7 9.1 9.4 9.1 4.1 0 7.4-1.8 9.2-4.5v3.9h8.2V37.7c-.1-3.6-2.5-5.9-10.6-5.9zm-8.8 17.5c-1.3 1.5-3.3 2.3-5.3 2.3-2.3 0-3.6-1.3-3.6-3.2 0-3.1 3.5-4 7.6-5 1.1-.3 2.1-.5 3.1-.8 0 2.5-1.8 6.7-1.8 6.7zm59.2-25h-9.3v23.2c0 2.9-1.2 4.6-3.7 4.6-2.2 0-3.3-1.5-3.3-3.9V24.3h-9.3v24.1c0 6.6 3.9 10.3 10 10.3 4.1 0 7.4-1.9 9.1-4.8v4.2h8.2V24.3h-1.7zm-119.5 0h-8.2l-3.3 8.3-2.7-8.3h-8.8l-4.1 11.2c-1.9 5.2-3.8 10.7-3.8 10.7l-2.4-6.8-3.9-11-2.9-4.1h-9.2l9 21.7-5.9 16.3h9.6l3.5-9.7 7.7.1 2.2 9.6h9.6l-9.2-38h.2l.2.3 9.4 37.7h9.5L67 24.3l-7.2.3zM42.1 45.3l-4.3-12.8 5 12.8H42.1z"/>
</svg>
