<svg xmlns="http://www.w3.org/2000/svg" viewBox="0 0 500 100" fill="#fff">
  <path d="M57.6,35.2c-1.8-0.6-4.5-1.2-6.5-1.2c-7.2,0-12.6,3.6-12.6,12.6c0,8.4,6,12.6,15.6,12.6c2.4,0,5.4-0.6,6.6-1.2 v11.4c-2.4,1.2-6,1.8-10.2,1.8c-12.6,0-25.2-6-25.2-24c0-15.6,10.2-24,25.8-24c4.8,0,8.4,0.6,10.8,1.2l-4.3,10.8L57.6,35.2z M106.8,49.6c0,16.2-7.8,24-21,24c-13.2,0-21-7.8-21-24c0-16.2,7.8-24,21-24C99,25.6,106.8,33.4,106.8,49.6z M77.4,49.6 c0,10.8,3,14.4,8.4,14.4c5.4,0,8.4-3.6,8.4-14.4c0-10.8-3-14.4-8.4-14.4C80.4,35.2,77.4,38.8,77.4,49.6z M116.4,26.8h11.4 v45.6h-12.6L116.4,26.8L116.4,26.8z M116.4,26.8L116.4,26.8L156.6,60V26.8h11.4v45.6h-10.8L116.4,38.8V26.8z M186.6,44.8 l-10.2-18h13.8l5.4,10.8l4.8-10.8h13.2l-16.2,28.8v16.8h-11.4V56.8L186.6,44.8z"/>
</svg>
